<svg width="18" height="15" viewBox="0 0 18 15" fill="none" xmlns="http://www.w3.org/2000/svg">
<path d="M1.73932 8.62942H14.5962L10.6611 13.1363C10.5699 13.2409 10.5013 13.3615 10.4591 13.4913C10.4169 13.6211 10.4019 13.7576 10.415 13.8929C10.4414 14.1662 10.5806 14.4184 10.802 14.5938C11.0234 14.7693 11.3088 14.8537 11.5954 14.8285C11.8821 14.8033 12.1465 14.6706 12.3305 14.4595L17.7507 8.25729C17.7872 8.20796 17.8198 8.15613 17.8483 8.10223C17.8483 8.05055 17.9025 8.01954 17.9242 7.96785C17.9733 7.84933 17.999 7.72317 18.0001 7.59573C17.999 7.46828 17.9733 7.34212 17.9242 7.2236C17.9242 7.17191 17.87 7.1409 17.8483 7.08922C17.8198 7.03532 17.7872 6.98349 17.7507 6.93416L12.3305 0.731995C12.2286 0.615309 12.1009 0.52147 11.9567 0.457153C11.8124 0.392835 11.655 0.359619 11.4958 0.359865C11.2425 0.359393 10.997 0.443511 10.802 0.597615C10.6922 0.684393 10.6015 0.790967 10.535 0.911234C10.4685 1.0315 10.4275 1.1631 10.4144 1.29849C10.4013 1.43388 10.4163 1.5704 10.4587 1.70024C10.501 1.83007 10.5698 1.95067 10.6611 2.05512L14.5962 6.56203H1.73932C1.45182 6.56203 1.17608 6.67094 0.972784 6.86479C0.769486 7.05865 0.655273 7.32157 0.655273 7.59573C0.655273 7.86988 0.769486 8.1328 0.972784 8.32666C1.17608 8.52051 1.45182 8.62942 1.73932 8.62942Z" fill="#E02C6D" fill-opacity="0.87"/>
</svg>
